<?xml version="1.0" encoding="utf-8"?>
<!-- Generator: Adobe Illustrator 19.0.0, SVG Export Plug-In . SVG Version: 6.00 Build 0)  -->
<svg xmlns="http://www.w3.org/2000/svg" xmlns:xlink="http://www.w3.org/1999/xlink" version="1.1" x="0px" y="0px" viewBox="0 0 2400 2400" style="enable-background:new 0 0 2400 2400;" xml:space="preserve">
<style type="text/css">
	.st0{fill:#00AEEF;}
	.st1{fill:#009BDF;}
	.st2{fill:#FFFFFF;}
	.st3{fill:#E6E7E8;}
	.st4{fill:#D1D3D4;}
	.st5{fill:#96D5D1;}
	.st6{fill:#F4E2B7;}
	.st7{fill:#E3D2A6;}
	.st8{fill:#B2CC68;}
	.st9{fill:#ED1C24;}
	.st10{fill:#BA9765;}
	.st11{fill:#D2BB98;}
	.st12{fill:#C6A87D;}
	.st13{fill:#7B6541;}
	.st14{fill:#6DCFF6;}
	.st15{fill:#A7A9AC;}
	.st16{fill:#DCDDDE;}
	.st17{fill:#F173AC;}
	.st18{fill:#F6ADCD;}
	.st19{fill:#F391BC;}
	.st20{fill:#FFDD00;}
	.st21{fill:#9F7D56;}
	.st22{fill:#FFCB05;}
	.st23{fill:#977348;}
	.st24{fill:#FFC20E;}
	.st25{fill:#F1B80E;}
	.st26{fill:#B49C66;}
	.st27{fill:#C7AB70;}
	.st28{fill:#414042;}
	.st29{fill:#FFF9AE;}
	.st30{fill:#8DC63F;}
	.st31{fill:#F0C697;}
	.st32{fill:#7FB539;}
	.st33{fill:#876740;}
	.st34{fill:#FED09E;}
	.st35{fill:none;stroke:#EC008C;stroke-width:1.3207;stroke-miterlimit:10;}
	.st36{fill:#E6BE91;}
	.st37{fill:none;stroke:#FFFFFF;stroke-width:0.7129;stroke-linecap:round;stroke-linejoin:round;stroke-dasharray:4.2433,4.2433;}
</style>
<g id="background">
	<g>
		
		<path class="st1" d="M2400,2396.4V413.6c-120,0-120-86-240-86c-120,0-120,86-240,86c-120,0-120-86-240-86c-120,0-120,86-240,86    s-120-86-240-86c-120,0-120,86-240,86c-120,0-120-86-240-86c-120,0-120,86-240,86c-120,0-120-86-240-86c-120,0-120,86-240,86    v1982.8H2400z"/>
		<path class="st0" d="M2160,794.8c-120,0-120-86-240-86c-120,0-120,86-240,86c-120,0-120-86-240-86c-120,0-120,86-240,86    s-120-86-240-86c-120,0-120,86-240,86c-120,0-120-86-240-86c-120,0-120,86-240,86c-120,0-120-86-240-86V2400h2400V708.8    C2280,708.8,2280,794.8,2160,794.8z"/>
		<path class="st1" d="M2400,2396.4V1213.1c-120,0-120-86-240-86c-120,0-120,86-240,86c-120,0-120-86-240-86c-120,0-120,86-240,86    s-120-86-240-86c-120,0-120,86-240,86c-120,0-120-86-240-86c-120,0-120,86-240,86c-120,0-120-86-240-86c-120,0-120,86-240,86    v1183.3H2400z"/>
		<path class="st0" d="M2160,1631.6c-120,0-120-86-240-86c-120,0-120,86-240,86c-120,0-120-86-240-86c-120,0-120,86-240,86    s-120-86-240-86c-120,0-120,86-240,86c-120,0-120-86-240-86c-120,0-120,86-240,86c-120,0-120-86-240-86V2400h2400v-854.4    C2280,1545.6,2280,1631.6,2160,1631.6z"/>
		<path class="st1" d="M2400,2400v-352.4c-120,0-120-86-240-86c-120,0-120,86-240,86c-120,0-120-86-240-86c-120,0-120,86-240,86    s-120-86-240-86c-120,0-120,86-240,86c-120,0-120-86-240-86c-120,0-120,86-240,86c-120,0-120-86-240-86c-120,0-120,86-240,86V2400    H2400z"/>
	</g>
</g>
<g id="pirate_set">
	<g>
		<g>
			<path class="st2" d="M231.4,896.1c-44.9,0-81.5-36.5-81.5-81.5c0-44.9,36.5-81.5,81.5-81.5c44.9,0,81.5,36.5,81.5,81.5     C312.9,859.5,276.3,896.1,231.4,896.1z M231.4,741.4c-40.4,0-73.2,32.9-73.2,73.2c0,40.4,32.9,73.2,73.2,73.2     c40.4,0,73.2-32.9,73.2-73.2C304.7,774.2,271.8,741.4,231.4,741.4z"/>
			<g>
				<polygon class="st3" points="247.5,798.6 362.9,814.6 247.5,830.7 231.4,946.1 215.3,830.7 100,814.6 215.3,798.6 231.4,683.2           "/>
				<path class="st4" d="M231.4,683.2l-16.1,115.3l16.1,16.1v0V683.2z M100,814.6l115.3,16.1l16.1-16.1h0H100z M231.4,814.6v131.4      l16.1-115.3L231.4,814.6L231.4,814.6z M362.9,814.6l-115.3-16.1l-16.1,16.1h0H362.9z"/>
			</g>
		</g>
		<g>
			<g>
				<path class="st5" d="M325.7,283.5c10.7-1.4,31.4-7.7,45.5-13.3c10.5-4.1,20.4-6.5,31.9-8.5c23.8-4.1,45.1-10.1,70.2-3.9      c20,4.9,38.4,15.2,58.7,17.2c23.3,2.3,46.2,2.8,70.3,2.8c23.2,0,42.3,5.9,64.2,10.4c20.7,4.2,37.4,18.8,57.6,26.6      c12.4,4.8,25.6,2.7,38.4,7.1c13.5,4.7,15.7,9.7,24.6,20.4c9,10.8,17,15,20.1,28.7c2.5,11.1,4.6,17,8.9,27.2      c8.3,19.3,6.4,51.4,8.3,73.1c2.1,24.4,8.3,44.9-0.1,67.3c-14.8,39.3-23.4,84-42.6,122.2c-10.3,20.5-19.6,41.9-30,63.1      c-10.3,21.1-11.2,41.4-31.6,57.4c-17.5,13.7-36.3,26.1-50.2,44c-14.6,18.8-35.9,36.1-60.5,37.3c-23.2,1.1-49.5-5.7-70.2-14.3      c-21.6-9-45.7-8.2-66.3-16.8c-26-10.9-32.7-29.7-50.9-48c-8.7-8.8-17-12.7-20.5-25.5c-3-11.3-2.2-24-2.8-35.8      c-1.4-30.4,10.3-43.7,22.5-70.2c5.6-12,4.1-22.6,4.7-35.8c0.5-12,3.9-23.9,2.7-35.6c-25.7-4.8-38.8,1.5-55.3,21.2      c-16.5,19.7-23.8,32.7-49.4,37.3c-11.8,2.1-23.5,8.1-35.5,8.6c-12.3,0.5-22.6-4.4-34.4-5.8c-28.2-3.1-41.5-12-43-41.6      c-0.7-13.3,4.8-23.4,5.4-35.8c0.6-12.4-5.3-21.5-5.4-34.4c-0.3-25.9,10-46.8,10-73.2c0-25.7,9.5-47.1,14.4-71.6      c5.2-26.1,1.7-48.3,16-71.7c8.9-14.5,12.9-23,28.3-28.6C291.8,280.6,315,284.9,325.7,283.5z"/>
				<path class="st6" d="M345.8,296.4c20.7,0.8,65.5-12.9,87.4-12.9c25.9,0,39,9.8,60.3,20c19.6,9.3,29.9,20.1,51.2,23.3      c9.9,1.5,21.3,3.1,31.8,4c12.7,1.1,18.5,4.8,30.1,8.6c20.9,6.9,42.5,11.8,64.5,12.9c20.2,1,50.3-8.4,65.5,8.6      c29.5,32.9,17.5,89.6,23.6,130.4c3.3,22.2,4,44.9,4,68.8c0,28.7-0.6,43.7-21.9,64.1c-16,15.4-27.8,41.8-33.7,63.4      c-2.9,10.7-4.1,21.1-10,30.4c-6.2,9.9-16.5,14-25.1,22.2c-17,16.4-20.3,35.5-27.2,56.2c-6.8,20.4-26.9,33.4-47,38.7      c-8.1,2.1-26.6,4.3-34.4,0.1c-9.6-5.2-15.1-20.4-24-27.7c-18.9-15.4-41.9-16.2-63.1-25.8c-38.7-17.5-47.4-72.5-31.9-107.1      c9.7-21.6,14.6-42.2,18.5-65.9c3.8-23,15.5-41.6,27.7-61.3c8.6-13.9,11.9-48.2,8.2-64.8c-4.4-19.9-36.6-21.2-52.7-14      c-18.2,8.2-35.9,32-48,46.9c-7.8,9.6-11.1,22.2-18.3,31.6c-7,9.2-12.6,13.4-17.2,24.3c-6.1,14.3-9.9,14.6-24.3,18.7      c-9.9,2.8-17.6,7-27.2,11.2c-17.5,7.4-47.9,14.8-65.9,4.9c-22.6-12.3-5.5-42.8-1.1-60.5c5.8-23.7,5.5-48.2,5.4-73.1      c-0.1-21.4,8-36.1,13.2-55.9c4.9-18.5,2.8-41,3.9-60.2C270.9,315,325,295.6,345.8,296.4z"/>
				<path class="st7" d="M364.4,325c13.7-6.5,46.1-10.8,71.6-4.6c11.1,2.7,20.5,7.7,31.5,10.3c11.5,2.7,25.8,1.3,36.2,6.8      c7.5,4,13.1,12.8,20.7,16.6c10.2,5.1,22.6,2.9,33,7.1c23.3,9.6,36.7,18.3,63.4,18.3c21.2,0,54-4.8,71.4,7.5      c18,12.8,27.9,30.8,28.9,52.7c1.2,24.1-0.4,49.1-2.5,72c-2.4,25.3,2.9,44.6-7.4,68.5c-8.5,19.6-15.3,40.7-18.7,61.6      c-2.8,17.3-4.3,16.9-19,26.9c-10.2,6.9-18.2,15.4-22.9,26.1c-4.6,10.6-2.8,22.2-7.2,32.6c-4.6,10.9-14.6,17.5-23,25.7      c-9.7,9.6-12.5,17.1-26.8,19c-12.8,1.7-23.2-1-33.3-6.8c-9.1-5.3-15.2-12.4-25.5-16.5c-9.4-3.7-23.1-3.1-30.9-11.1      c-14.3-14.6-13.1-51.4-9.2-70.2c4.8-23,22.3-40.3,30.1-61.5c7.8-21.2,16-45.7,17.1-69.1c1.2-24.4,2.2-50.8-6.1-72.8      c-9.8-26.1-27.6-29.1-52.6-37.6c-38.5-13-88.8,23.3-106,57.6c-5.5,11-7.3,16.9-17.2,24.7c-9.1,7.1-18.7,13.4-26.2,22.6      c-7.5,9.3-30.4,43.8-43.7,31.2c-2.9-2.7-8.1-23.8-8.9-28.3c-2.2-12.2,3.3-24.4,5.8-35.8c4.9-22.7,5.6-45.6,9.9-68.8      C304.5,389.1,350.6,331.5,364.4,325z"/>
				<path class="st8" d="M322.8,489.8c-22.2-43.8,21-85.6,63-109.3c23.2-13.1,44-22.5,70.6-17.2c23.2,4.7,45.6,10.3,68.5,17.6      c17.8,5.7,43.1,10.6,59.9,20.3c7.1,4.1,20.9,14,26.5,21.2c3.5,4.5,2.4,10,5.4,14.3c4.7,6.8,7.2,4.6,14.3,8.6      c36.7,20.7,3.1,100.8,0,131.9c-1.2,12.5,3.9,21.3,4.6,33c0.8,12.4-5.3,22.9-8.9,34.4c-5.7,18.4-12.8,40.9-28.3,54.8      c-18.6,16.6-43.5-0.4-44.8-21.8c-1.4-23.5,2.1-48,11.8-68.7c15.4-33,20.3-103.9,4.3-138c-9.1-19.4-14.5-35.7-33.7-49.4      c-15.3-11-45.6-16.9-64.1-19c-29.5-3.3-67.1,10-90.1,30.1c-9.7,8.5-25.3,19.5-31.8,32.6C344.1,477,332.6,509,322.8,489.8z"/>
				<path class="st9" d="M576.9,800.5c-6.1-0.7-12-1.6-17.7-2.8l1.6-7.9c5.4,1.1,11.1,2,16.9,2.7L576.9,800.5z M595.6,800.1      l-1.7-7.8c5.2-1.2,9.4-3.5,12.8-7.3l5.9,5.4C608.1,795.4,602.4,798.6,595.6,800.1z M541.9,793.2c-5.8-1.9-11.5-4.1-16.8-6.7      l3.5-7.3c5,2.4,10.3,4.5,15.8,6.3L541.9,793.2z M509.4,777.5c-5.1-3.4-9.9-7.3-14.2-11.4l5.6-5.8c4,3.8,8.4,7.4,13.1,10.6      L509.4,777.5z M621.8,773.7l-7.6-2.5c1.5-4.6,2.7-10,3.6-16.4l8,1.1C624.7,762.9,623.4,768.7,621.8,773.7z M483.2,752.4      c-3.6-5-6.6-10.3-9.2-15.8l7.3-3.4c2.3,5.1,5.2,9.9,8.4,14.5L483.2,752.4z M627.4,738.1l-8-0.5c0.3-5.1,0.6-10.4,0.8-15.5      l0.1-1.9l8,0.4l-0.1,1.9C627.9,727.6,627.7,733,627.4,738.1z M468,719.3c-1.5-5.8-2.4-11.9-2.8-18l8-0.5      c0.4,5.6,1.2,11.2,2.6,16.6L468,719.3z M629.3,703.1l-8-0.6c0.5-6.8,1.1-12.6,1.9-17.8l8,1.2      C630.3,690.9,629.8,696.5,629.3,703.1z M473.6,684l-8-0.9c0.6-5.4,1.8-11.3,3.7-17.8l7.7,2.2C475.3,673.5,474.2,679.1,473.6,684      z M634.7,669.4L627,667c1.9-6.1,4.2-11.2,7.1-15.7c0.2-0.3,0.4-0.7,0.7-1.1l6.8,4.2c-0.2,0.4-0.5,0.8-0.7,1.2      C638.4,659.5,636.4,664,634.7,669.4z M482.5,651.2l-7.5-2.8c1.9-5,4.1-10.4,6.7-16.4l7.4,3.2C486.5,641,484.3,646.3,482.5,651.2      z M649.8,638.2l-7.4-3.1c2-4.9,3.9-10.3,5.7-16.2l7.7,2.3C653.9,627.4,651.9,633.1,649.8,638.2z M496.1,619.1l-7.3-3.4      c2.1-4.6,4.4-9.4,6.5-14l0.9-1.9l7.3,3.4l-0.9,1.9C500.5,609.8,498.3,614.5,496.1,619.1z M660.2,604l-7.8-1.8      c1.2-5.4,2.3-11.1,3.3-17l7.9,1.3C662.6,592.6,661.5,598.5,660.2,604z M510.9,587.3l-7.3-3.3c2.7-6,5-11.2,7-16l7.4,3.1      C516,575.9,513.6,581.2,510.9,587.3z M666.1,569.1l-8-1c0.7-5.7,1.3-11.5,1.7-17.3l8,0.6C667.4,557.3,666.8,563.3,666.1,569.1z       M524.6,554.6l-7.5-2.8c2.2-5.9,3.9-11.3,5.3-16.4l7.8,2.1C528.6,542.9,526.8,548.5,524.6,554.6z M668.9,533.7l-8-0.3      c0.2-4.7,0.3-9.4,0.3-13.9c0-1.2,0-2.3,0-3.4l8-0.1c0,1.2,0,2.3,0,3.5C669.1,524.1,669,528.9,668.9,533.7z M533.7,519.8l-8-1      c0.4-3.1,0.6-6.1,0.6-8.9c0-2.6-0.2-5.2-0.5-7.5l8-1.1c0.4,2.7,0.6,5.7,0.6,8.7C534.3,513.1,534.1,516.4,533.7,519.8z       M660.4,498.8c-0.5-6.5-1.1-12.2-2-17l7.9-1.5c0.9,5,1.6,11,2.1,17.9L660.4,498.8z M521,486.7c-2.3-5.3-5.1-10.1-8.3-14.1l6.3-5      c3.7,4.6,6.9,10,9.5,16L521,486.7z M500.7,461.9c-4.5-2.8-9.6-4.7-14.9-5.8l1.6-7.9c6.3,1.3,12.2,3.6,17.6,6.8L500.7,461.9z       M453.4,459.3l-2.7-7.6c6-2.2,12-3.6,18-4.2l0.8,8C464.2,456,458.8,457.3,453.4,459.3z"/>
				<polygon class="st9" points="651.5,441.8 629.7,429.2 622.9,441 644.7,453.6 632.1,475.4 643.9,482.2 656.5,460.4 678.3,473       685.1,461.2 663.3,448.6 675.8,426.8 664.1,420     "/>
			</g>
			<g>
				<g>
					<path class="st10" d="M176,156.8c-1.9-8.7,7.1-25.5,48.1-25.5c17.5,0,25.9,5.2,26.2,11.1v165.3c-0.4-5.9-8.7-11.1-26.2-11.1       c-41,0-50,16.8-48.1,25.5V156.8z"/>
					<path class="st11" d="M250.4,143.1c-0.4,7.4-13,15.4-35.5,15.4v165.3c23.3,0,36-8.6,35.5-16.2L250.4,143.1z"/>
					<path class="st12" d="M810.9,128.2c-194.4-84.2-413.9,47-591.8,47c-26.9,0-40.4-5.9-43.1-18.3v165.3       c2.7,12.5,16.2,18.3,43.1,18.3c177.8,0,397.4-157.2,591.8-73.1c0,0-5.4-24.2-6.4-67.7C803.6,156.2,810.9,128.2,810.9,128.2z"/>
				</g>
				<g>
					<path class="st13" d="M247.9,265.9c-1.3-6.4-4-19-4.7-21c-13.8,2.8-19.5,6.2-21.5,8.1c-0.3,2-0.1,5.5-0.1,8.4l-1.9,0.9       c-0.5-4.2-1.6-15.1-3.1-21.9l2-0.1c0.3,1.1,1,3.7,1.7,5.5c1.4,0,16.3-2.4,27.9-4.8c12.5-2.5,27.2-6.2,28.5-6.7       c0.1-1.1,0.1-3.9,0.1-5.6l2.1-0.8c-0.1,2.1,1.5,20.1,1.8,22.7l-2.1-0.1c-0.5-3.5-1.2-7-1.6-8.9c-2.5-1.3-14.8-0.7-23.2,0.9       c0.2,2.4,2.6,15,3.8,21.1l0.8,3.9c1.5,7.6,4.7,22.1,6.3,28.9c1.7-0.1,9.7-0.9,11.3-1l0.7,1.7c-2.1,0.2-12.2,2.1-16.9,3.1       c-3.9,0.8-14.1,3.1-16.6,3.7l0.1-1.9c1.9-0.6,8.7-2.8,10.8-3.4c-1.1-6.8-3.9-21.6-5.5-29.1L247.9,265.9z"/>
					<path class="st13" d="M303,251.9c-0.9-3-5.6-19.2-6.4-20.7c-1.5,0.1-7.4,1.2-9.3,1.6l-0.8-1.7l18.2-5.3       c8-2.3,18.1-5.1,24.4-4.5c5,0.5,8.7,2.9,10,7.5c1.5,5.3-1.8,13.9-7.3,19.4c1.5,1.8,21.5,20,32.9,26.7l-3.5,1.7       c-6.7-1-36.5-20.4-38.4-21.8c-3.1,1.2-6.5,2.4-7.9,2.8l0.6,2.2c1.6,5.5,5.5,18.4,6.9,22.2c1.6,0,7.3-1,9.2-1.4l0.8,1.7       c-2.2,0.4-10.7,2.7-14.6,3.8c-3.5,1-12.3,3.7-14.1,4.4l-0.2-1.9c1.2-0.4,6.4-2.5,8.6-3.8c-0.4-2.5-5-19.1-7.6-27.9L303,251.9z        M314.1,255c3-0.9,6.6-2.2,9.8-4.6c3.2-2.4,8.1-8,5.7-16.3c-1.6-5.4-8.3-10.6-22.9-6.4c0.7,3.5,4.9,18.7,6.6,24.6L314.1,255z"/>
					<path class="st13" d="M371.2,234.8c-2.3-7.6-6.6-20.8-7.7-23.3c-1.7,0.1-7,1.1-9.1,1.5l-0.9-1.7c2-0.5,4.8-1.3,7.6-2       c2.8-0.8,5.6-1.6,7.4-2.2c2.7-0.8,22.4-6.8,24.5-8.1c-0.1-1.1-0.2-2.6-0.5-4.1l1.8-0.9c0.1,1.9,3,15.2,3.6,17.9l-2,0       c-0.2-0.6-1.2-4.4-1.8-6c-2.2-2-15.5,0.9-20,2.2c0.1,1.3,4.7,17.6,6.2,22.5l0.5,1.7c7.2-2.2,15.2-5.2,17-6.6       c0-1.4-0.1-2.6-0.3-3.9l1.7-0.7c0.2,1.6,2.2,13.5,2.6,16.4l-1.8-0.2c-0.5-1.8-1-4-1.5-5.7c-3-0.6-9.7,0.9-16.9,3.1l0.5,1.7       c1.6,5.1,7.4,23.3,8.4,25.7c8.4-2.5,16.1-5.6,19.3-9c0-3.2-0.3-5.9-0.4-7.9l1.8-1.1c0.2,2.6,2.2,15.9,3.1,20.2l-1.9,0.2       c-0.7-2.3-1.1-3.8-1.6-5.1c-2.6,0.3-21.3,5.6-26.6,7.2c-2.9,0.9-9.4,3-12.7,4.2l-0.1-1.9c1.3-0.5,6.2-2.5,8.3-3.8       c-0.1-1.6-4.6-17.1-7.4-26.4L371.2,234.8z"/>
					<path class="st13" d="M461.2,242c2.9-1.1,5.7-2.3,8.2-3.6c-2.8-3.9-13.9-20.1-15.9-22.2c-3,0.8-16.2,5.3-19.2,6.7       c-0.2,1.3-0.2,18.6,0.9,25.3c2.3,0,5.2-0.5,7.6-0.9l0.8,1.7c-2.7,0.6-10.4,2.6-12.8,3.3c-2.2,0.6-7.8,2.4-9.7,3.1l-0.3-1.8       c2.4-1,4.8-2.1,6.9-3.3c1.5-6.2,5.3-56.3,5.6-59.9c-2,0-4.9,0.5-7,0.8l-0.6-1.7c2.6-0.6,9.6-2.4,11.1-2.8       c3.5-1,11.9-3.6,14.3-4.5l0.3,1.8c-2.1,0.9-4.3,1.9-6.1,2.9c2.1,3.4,10.5,15.3,16.2,23.3c4.2,5.8,13.5,18.5,19.5,24.8       c2.6-0.2,5.1-0.6,7.8-0.9l0.8,1.7c-1.1,0.1-9.6,2.4-14.1,3.7c-2.4,0.7-11.9,3.6-14.2,4.4L461.2,242z M436.4,191.1l-0.2,0       c-0.5,8.3-1.8,24.4-1.8,27.4l17.8-4.7C448.7,208.8,439.1,195.4,436.4,191.1z"/>
					<path class="st13" d="M496.9,242.9c-0.1-1.2-1.3-11-2.1-14.3c-0.5-2.2-2.3-11.5-3.1-13.5l2.1,0c0.2,1.1,1.8,5.9,2.4,7.3       c3.6,4.9,9.6,7.5,15.5,6c6.7-1.7,11-7.4,9.4-13.7c-1.7-6.9-7.9-9-14.3-11.2c-9.7-3.4-17.5-6.5-19.9-16.1       c-1.6-6.6,1.2-16.2,13.8-19.3c5-1.2,9.7-1.3,11.9-1.3c0.1-2.2-0.1-4.8-0.2-7.3l1.9-0.7c0.9,8.7,2,16.9,3.7,23.8l-2.2-0.4       c-0.7-2.9-1.4-4.9-1.9-6.4c-1.7-2.8-7.3-6.3-13.2-4.9c-7.3,1.8-9.2,7.3-8.3,11.1c1.4,5.5,7.9,7.1,15.4,9.6       c8.2,2.7,16.5,5.7,19.1,16.4c2.9,11.8-4.8,20.9-16.4,23.7c-4.1,1-9.6,1.5-12.3,0.8c0,1.7,0.1,6,0.3,9.3L496.9,242.9z"/>
					<path class="st13" d="M545,182.2c-1.4-7.8-3.2-17.1-3.9-19.4c-1.9-0.1-4.6-0.1-7,0l-0.6-1.8c2.4-0.3,8-1.1,14.7-2.2       c4-0.7,10.6-2,12.7-2.6l-0.1,1.9c-2.3,0.7-6.1,1.8-8.8,2.8c0,1.5,1.8,12.5,3.1,19.9l2,11.5c3.2,18.3,12.1,23.2,21.4,21.5       c5.7-1,9.3-3.1,11.7-6.3c3.9-5.2,3.7-13,1.8-23.4l-1.4-7.9c-0.5-2.8-3.4-18.6-4.2-21.3c-2,0-7.4,0.2-9.6,0.5l-0.9-1.7       c2.2-0.2,8.7-1.2,14.1-2.1c4.5-0.8,9-1.8,10.5-2.2l-0.2,1.9c-1.4,0.6-3.7,1.4-5.8,2.3c0,1.3,1.7,12.2,2.1,14.5l0.7,4.1       c0.6,3.4,1.5,7.5,2,10.6c1.7,9.8,1.4,18.4-4.2,25.4c-3.3,4.2-8.4,7.7-17,9.2c-17.9,3.2-28-6.5-30.7-21.6L545,182.2z"/>
					<path class="st13" d="M630.3,171.2c-0.2-3.2-1.1-20-1.6-21.6c-1.5-0.3-7.5-0.5-9.4-0.6l-0.4-1.8l18.9-1.1       c8.3-0.4,18.7-0.9,24.8,1.1c4.7,1.6,7.8,4.8,8.1,9.6c0.3,5.5-4.9,13.1-11.5,17.2c1.1,2.1,16.4,24.3,26,33.5l-3.8,0.8       c-6.3-2.5-31-28.1-32.5-29.9c-3.3,0.4-6.9,0.9-8.4,1l0.1,2.3c0.3,5.7,1.2,19.2,1.7,23.2c1.5,0.4,7.3,0.7,9.3,0.7l0.4,1.8       c-2.2-0.1-11.1,0.2-15.1,0.4c-3.6,0.2-12.8,0.9-14.8,1.1l0.3-1.9c1.2-0.2,6.8-1,9.2-1.7c0.2-2.6-0.6-19.7-1.1-28.9L630.3,171.2       z M640.4,176.8c3.2-0.2,6.9-0.6,10.6-2.2c3.7-1.6,9.7-6,9.2-14.6c-0.3-5.6-5.7-12.2-20.9-11.4c-0.1,3.6,0.6,19.3,0.9,25.5       L640.4,176.8z"/>
					<path class="st13" d="M704.5,173.3c0.9-7.8,2.1-21.7,2.1-24.5c-1.6-0.5-6.9-1.7-8.9-2.2l-0.1-1.9c2.1,0.3,4.9,0.7,7.8,1.1       c2.9,0.3,5.7,0.7,7.7,0.9c2.8,0.3,23.3,2.6,25.7,2.2c0.4-1,0.8-2.5,1.2-4l2-0.1c-0.6,1.8-3.3,15.2-3.7,17.8l-1.8-0.8       c0.1-0.6,0.6-4.5,0.7-6.3c-1.3-2.7-14.6-5.3-19.2-5.8c-0.4,1.2-2.6,18-3.2,23.1l-0.2,1.7c7.5,0.8,16,1.2,18.2,0.6       c0.6-1.3,1-2.5,1.3-3.7l1.9,0c-0.4,1.5-3.3,13.3-4.1,16l-1.6-0.9c0.3-1.8,0.6-4.1,0.8-5.8c-2.5-1.7-9.3-3-16.8-3.8l-0.2,1.7       c-0.6,5.3-2.4,24.4-2.4,26.9c8.7,1,17,1.2,21.2-0.6c1.3-2.9,2-5.6,2.8-7.5l2.1-0.3c-0.9,2.5-4.3,15.5-5.1,19.8l-1.8-0.6       c0.3-2.4,0.4-3.9,0.5-5.3c-2.5-0.7-21.8-3.2-27.3-3.8c-3-0.3-9.9-0.9-13.3-1.1l0.6-1.8c1.4,0.1,6.7,0.1,9.1-0.2       c0.5-1.5,2.6-17.5,3.6-27.1L704.5,173.3z"/>
				</g>
			</g>
			<g>
				<path d="M717.2,224.1L717.2,224.1l-4.3-1.1l-61.2,228.4l4.3,1.2L686.7,338c58.7-23.9,88.2,67.3,146.3,46.6l30.5-113.8      C805.4,291.4,775.9,200.3,717.2,224.1z"/>
				<g>
					<path class="st2" d="M738.2,307l-3.8,1.4c-0.1-0.4-0.2-0.8-0.3-1.2c-1.3-3.6-5.3-5.5-8.9-4.2c-3.6,1.3-5.5,5.3-4.2,8.9       c0.8,2.1,2.4,3.5,4.3,4.2c-1,1.7-1.3,3.9-0.6,6c1.3,3.6,5.3,5.5,8.9,4.2c3.6-1.3,5.5-5.3,4.2-8.9c-0.1-0.4-0.3-0.7-0.5-1.1       l4.4-1.6C739.5,312.7,738.2,309.9,738.2,307z"/>
					<path class="st2" d="M750.6,265.8c0.4-0.1,0.7-0.3,1.1-0.5l2.8,7.7c2.4-1.6,4.9-2.9,7.6-3.8l-2.5-6.8c0.4-0.1,0.8-0.2,1.2-0.3       c3.6-1.3,5.5-5.3,4.2-8.9c-1.3-3.6-5.3-5.5-8.9-4.2c-2.1,0.7-3.5,2.4-4.2,4.3c-1.7-1-3.9-1.3-6-0.6c-3.6,1.3-5.5,5.3-4.2,8.9       C743,265.3,747,267.1,750.6,265.8z"/>
					<path class="st2" d="M822.1,288.3c-0.8-2.1-2.4-3.5-4.3-4.2c1-1.7,1.3-3.9,0.6-6c-1.3-3.6-5.3-5.5-8.9-4.2       c-3.6,1.3-5.5,5.3-4.2,8.9c0.1,0.4,0.3,0.7,0.5,1.1l-6.8,2.5c1.1,2.6,1.7,5.4,2,8.3l7.7-2.8c0.1,0.4,0.2,0.8,0.3,1.2       c1.3,3.6,5.3,5.5,8.9,4.2C821.6,295.9,823.4,291.9,822.1,288.3z"/>
					<path class="st2" d="M787.9,332.3c-0.4,0.1-0.7,0.3-1.1,0.5l-1.4-3.8c-2.3,1.8-5.2,2.7-8.2,2.3l1.6,4.4       c-0.4,0.1-0.8,0.2-1.2,0.3c-3.6,1.3-5.5,5.3-4.2,8.9c1.3,3.6,5.3,5.5,8.9,4.2c2.1-0.7,3.5-2.4,4.2-4.3c1.7,1,3.9,1.3,6,0.6       c3.6-1.3,5.5-5.3,4.2-8.9C795.5,332.9,791.5,331,787.9,332.3z"/>
					<path class="st2" d="M787,324.4c0.6-1.4,0.9-2.8,0.9-4.3c3.7-2.7,6.9-6.4,9-10.9c6.6-14.1,0.5-30.8-13.6-37.3       c-14.1-6.6-30.8-0.5-37.3,13.6c-2.1,4.5-2.9,9.3-2.6,13.9c-1.1,0.9-2.1,2-2.7,3.4c-2.2,4.6-0.2,10.2,4.5,12.3       c0.1,0.1,0.3,0.1,0.4,0.2c-0.2,0.2-0.4,0.5-0.5,0.8c-1,2.2-0.1,4.9,2.2,5.9c1.3,0.6,2.8,0.5,4-0.1c0,1.7,0.9,3.4,2.6,4.1       c1.5,0.7,3.1,0.5,4.4-0.4c0.2,1.5,1.1,2.9,2.5,3.6c1.6,0.8,3.5,0.4,4.8-0.7c0.3,1.3,1.1,2.5,2.5,3.2c2.2,1,4.9,0.1,5.9-2.2       c0.1-0.3,0.2-0.6,0.3-0.9c0.1,0.1,0.3,0.2,0.4,0.2C779.3,331.1,784.9,329.1,787,324.4z M753.2,302.5c-3.5-1.7-5.1-5.9-3.4-9.4       c1.7-3.5,5.9-5.1,9.4-3.4c3.5,1.7,5.1,5.9,3.4,9.4C760.9,302.6,756.7,304.2,753.2,302.5z M763.3,314.9c-2.3,2.5-6.2,1.3-4.6-2       c1.9-4.1,7.3-3.8,7.3-3.8s3.7,3.9,1.8,8C766.2,320.4,762.8,318.3,763.3,314.9z M779.2,314.6c-3.5-1.7-5.1-5.9-3.4-9.4       c1.6-3.5,5.9-5.1,9.4-3.4c3.5,1.7,5.1,5.9,3.4,9.4C787,314.8,782.8,316.3,779.2,314.6z"/>
				</g>
			</g>
		</g>
	</g>
	<g>
		<g>
			<g>
				<g>
					<path class="st14" d="M1960.8,955.1c-16.3-20.4-13.8-52.6,9.6-68.6c23.4-16,55.4-10.7,77.8,21.9c31.3,45.6,25.8,83.6,26.6,84.9       C2043.1,947.1,1993.9,996.3,1960.8,955.1z"/>
					<path class="st14" d="M2188.9,955.1c16.3-20.4,13.8-52.6-9.6-68.6c-23.4-16-55.4-10.7-77.8,21.9       c-31.3,45.6-25.8,83.6-26.6,84.9C2106.6,947.1,2155.8,996.3,2188.9,955.1z"/>
				</g>
				<g>
					<path class="st14" d="M1989.2,830.4c-12.3-15.3-10.8-39.9,6.8-52c17.6-12.1,42.1-7.6,58.9,16.9c23.5,34.3,19.4,79.7,20,80.6       C2051,841.3,2014,861.4,1989.2,830.4z"/>
					<path class="st14" d="M2160.5,830.4c12.3-15.3,10.8-39.9-6.8-52c-17.6-12.1-42.1-7.6-58.9,16.9c-23.5,34.3-19.4,79.7-20,80.6       C2098.7,841.3,2135.7,861.4,2160.5,830.4z"/>
				</g>
				<path class="st14" d="M2040.1,706.9c0-17.3,14-31.4,31.4-31.4s31.4,14,31.4,31.4c0,28.6-31.4,51.6-31.4,51.6      S2040.1,738.2,2040.1,706.9z"/>
			</g>
			<g>
				<path class="st4" d="M2256.2,1108.3c-48.9-66.2-126.6-117-272.3-117c-190.7,0-326,66.5-326,281.9c0,80.5-22.2,168.8-114.1,168.8      c-46.4,0-55.4-55.2-55.6-100.9c28.9,0.6,63,6.9,81.1-25.1c21-37,30.6-50.1,42.2-52.3c-26.7-51.9-124-41.8-147.7,36.2      c-23.7-78-120.9-88.1-147.7-36.2c11.6,2.1,21.2,15.3,42.2,52.3c17.1,30.2,48.4,26.3,76.1,25.2      c1.4,264.8,295.4,272.4,421.6,272.4c126.6,0,313.4-13.8,392-73.2C2316.1,1489,2315.7,1188.9,2256.2,1108.3z"/>
				<ellipse class="st15" cx="2073.3" cy="1039.7" rx="37.1" ry="13"/>
				<path class="st16" d="M2050.8,1567.1c19,32.8,4.9,66.7-44.2,95s-121.9,44.6-140.9,11.8c-19-32.8,23.2-102.4,72.2-130.7      C1987.1,1514.9,2026.3,1524.6,2050.8,1567.1z"/>
				<g>
					<circle class="st2" cx="2119.3" cy="1331.6" r="59.2"/>
					<circle cx="2119.3" cy="1331.6" r="43.2"/>
					<circle class="st2" cx="2094.6" cy="1306.9" r="15.9"/>
				</g>
			</g>
		</g>
		<path class="st17" d="M2118.6,1433.8c31.7,49.1,104.2,57.8,162.3,49.3c-8.2,26.6-19.1,47-32.8,57.3c-3.3,2.5-6.8,4.9-10.5,7.2    C2168.6,1538.4,2114.2,1494.1,2118.6,1433.8z"/>
	</g>
	<g>
		<path class="st18" d="M1971,150c53.4,0,36.3,134.4,85.4,166.5c49.1,32,175-12.8,192.1,29.9c17.1,42.7-108.8,70.4-119.5,113.1    c-10.7,42.7,65,177.1,30.8,204.9c-34.1,27.7-141.8-111-188.7-111s-138.3,151.7-176.7,121.9c-38.4-29.9,23-156,14.5-194.4    c-8.5-38.4-140.8-74.7-134.4-111c6.4-36.3,168.6-21.3,207-61.9C1919.8,267.4,1919.8,150,1971,150z"/>
		<g>
			<g>
				<circle class="st2" cx="1901.1" cy="381.2" r="35.3"/>
				<circle cx="1901.1" cy="381.2" r="22.5"/>
				<circle class="st2" cx="1915.9" cy="366.3" r="11.6"/>
			</g>
			<g>
				<circle class="st2" cx="2023" cy="381.2" r="35.3"/>
				<circle cx="2023" cy="381.2" r="22.5"/>
				<circle class="st2" cx="2037.9" cy="366.3" r="11.6"/>
			</g>
		</g>
		<path class="st17" d="M2024.8,456.5c0,34.6-28.1,62.7-62.7,62.7c-34.6,0-62.7-28.1-62.7-62.7C1899.4,440,2024.8,440,2024.8,456.5z    "/>
		<g>
			<g>
				<circle class="st19" cx="1748" cy="381.2" r="13"/>
				<circle class="st19" cx="1798.5" cy="407.7" r="19.9"/>
			</g>
			<circle class="st19" cx="1949.4" cy="221.3" r="13"/>
			<circle class="st19" cx="2115.9" cy="565" r="19.9"/>
		</g>
	</g>
	<g>
		<g>
			<path class="st20" d="M2300,1840.6c0-22.4-18.2-40.6-40.6-40.6h-568.2c-22.4,0-40.6,18.2-40.6,40.6v128.2H2300V1840.6z"/>
			<path class="st21" d="M1691.2,1929.1h162.3V1800h-162.3V1929.1z M1894.2,1929.1h162.3V1800h-162.3V1929.1z M2097.1,1800v129.1     h162.3V1800H2097.1z"/>
		</g>
		<g>
			<rect x="1650.6" y="1968.8" class="st22" width="649.4" height="331.2"/>
			<rect x="1691.2" y="2008.6" class="st23" width="568.2" height="251.6"/>
			<path class="st22" d="M1650.6,1968.8V2300H2300v-331.2H1650.6z M1853.6,2260.2h-162.3v-251.6h162.3V2260.2z M2056.5,2260.2     h-162.3v-251.6h162.3V2260.2z M2259.4,2260.2h-162.3v-251.6h162.3V2260.2z"/>
		</g>
		<g>
			<polygon class="st22" points="2013.5,2069.1 1937.1,2069.1 1945.2,1979.5 2005.4,1979.5    "/>
			<g>
				<g>
					<path d="M1989.8,2010.3c0-8-6.5-14.4-14.4-14.4s-14.4,6.5-14.4,14.4c0,4.7,2.3,8.9,5.8,11.5l-3.5,30.9h24.4l-3.5-30.9       C1987.5,2019.2,1989.8,2015,1989.8,2010.3z"/>
				</g>
			</g>
		</g>
		<path class="st24" d="M1772.8,1941.1c-4.6,0-8.3,3.7-8.3,8.3s3.7,8.3,8.3,8.3c4.6,0,8.3-3.7,8.3-8.3S1777.3,1941.1,1772.8,1941.1z     M1874,1941.1c-4.6,0-8.3,3.7-8.3,8.3s3.7,8.3,8.3,8.3c4.6,0,8.3-3.7,8.3-8.3S1878.5,1941.1,1874,1941.1z M2278.8,1872.8    c4.6,0,8.3-3.7,8.3-8.3c0-4.6-3.7-8.3-8.3-8.3s-8.3,3.7-8.3,8.3C2270.6,1869.1,2274.3,1872.8,2278.8,1872.8z M1671.6,1941.1    c-4.6,0-8.3,3.7-8.3,8.3s3.7,8.3,8.3,8.3s8.3-3.7,8.3-8.3S1676.1,1941.1,1671.6,1941.1z M1671.6,1856.3c-4.6,0-8.3,3.7-8.3,8.3    c0,4.6,3.7,8.3,8.3,8.3s8.3-3.7,8.3-8.3C1679.8,1860,1676.1,1856.3,1671.6,1856.3z M2076.4,1941.1c-4.6,0-8.3,3.7-8.3,8.3    s3.7,8.3,8.3,8.3s8.3-3.7,8.3-8.3S2081,1941.1,2076.4,1941.1z M2278.8,1941.1c-4.6,0-8.3,3.7-8.3,8.3s3.7,8.3,8.3,8.3    s8.3-3.7,8.3-8.3S2283.4,1941.1,2278.8,1941.1z M1874,1856.3c-4.6,0-8.3,3.7-8.3,8.3c0,4.6,3.7,8.3,8.3,8.3c4.6,0,8.3-3.7,8.3-8.3    C1882.2,1860,1878.5,1856.3,1874,1856.3z M2177.6,1941.1c-4.6,0-8.3,3.7-8.3,8.3s3.7,8.3,8.3,8.3s8.3-3.7,8.3-8.3    S2182.2,1941.1,2177.6,1941.1z M1975.2,1941.1c-4.6,0-8.3,3.7-8.3,8.3s3.7,8.3,8.3,8.3s8.3-3.7,8.3-8.3    S1979.8,1941.1,1975.2,1941.1z M2076.4,1856.3c-4.6,0-8.3,3.7-8.3,8.3c0,4.6,3.7,8.3,8.3,8.3s8.3-3.7,8.3-8.3    C2084.7,1860,2081,1856.3,2076.4,1856.3z"/>
		<path class="st25" d="M1772.8,1981.1c-4.6,0-8.3,3.7-8.3,8.3s3.7,8.3,8.3,8.3c4.6,0,8.3-3.7,8.3-8.3S1777.3,1981.1,1772.8,1981.1z     M1874,2078.1c-4.6,0-8.3,3.7-8.3,8.3c0,4.6,3.7,8.3,8.3,8.3c4.6,0,8.3-3.7,8.3-8.3C1882.2,2081.8,1878.5,2078.1,1874,2078.1z     M1772.8,2272.2c-4.6,0-8.3,3.7-8.3,8.3c0,4.6,3.7,8.3,8.3,8.3c4.6,0,8.3-3.7,8.3-8.3C1781,2275.9,1777.3,2272.2,1772.8,2272.2z     M1874,2175.2c-4.6,0-8.3,3.7-8.3,8.3c0,4.6,3.7,8.3,8.3,8.3c4.6,0,8.3-3.7,8.3-8.3C1882.2,2178.9,1878.5,2175.2,1874,2175.2z     M1874,2272.2c-4.6,0-8.3,3.7-8.3,8.3c0,4.6,3.7,8.3,8.3,8.3c4.6,0,8.3-3.7,8.3-8.3C1882.2,2275.9,1878.5,2272.2,1874,2272.2z     M1671.6,1981.1c-4.6,0-8.3,3.7-8.3,8.3s3.7,8.3,8.3,8.3s8.3-3.7,8.3-8.3S1676.1,1981.1,1671.6,1981.1z M2278.8,1997.6    c4.6,0,8.3-3.7,8.3-8.3s-3.7-8.3-8.3-8.3s-8.3,3.7-8.3,8.3S2274.3,1997.6,2278.8,1997.6z M1671.6,2078.1c-4.6,0-8.3,3.7-8.3,8.3    c0,4.6,3.7,8.3,8.3,8.3s8.3-3.7,8.3-8.3C1679.8,2081.8,1676.1,2078.1,1671.6,2078.1z M1671.6,2272.2c-4.6,0-8.3,3.7-8.3,8.3    c0,4.6,3.7,8.3,8.3,8.3s8.3-3.7,8.3-8.3C1679.8,2275.9,1676.1,2272.2,1671.6,2272.2z M1671.6,2175.2c-4.6,0-8.3,3.7-8.3,8.3    c0,4.6,3.7,8.3,8.3,8.3s8.3-3.7,8.3-8.3C1679.8,2178.9,1676.1,2175.2,1671.6,2175.2z M2177.6,1981.1c-4.6,0-8.3,3.7-8.3,8.3    s3.7,8.3,8.3,8.3s8.3-3.7,8.3-8.3S2182.2,1981.1,2177.6,1981.1z M1874,1981.1c-4.6,0-8.3,3.7-8.3,8.3s3.7,8.3,8.3,8.3    c4.6,0,8.3-3.7,8.3-8.3S1878.5,1981.1,1874,1981.1z M2278.8,2272.2c-4.6,0-8.3,3.7-8.3,8.3c0,4.6,3.7,8.3,8.3,8.3s8.3-3.7,8.3-8.3    C2287.1,2275.9,2283.4,2272.2,2278.8,2272.2z M2278.8,2078.1c-4.6,0-8.3,3.7-8.3,8.3c0,4.6,3.7,8.3,8.3,8.3s8.3-3.7,8.3-8.3    C2287.1,2081.8,2283.4,2078.1,2278.8,2078.1z M2278.8,2175.2c-4.6,0-8.3,3.7-8.3,8.3c0,4.6,3.7,8.3,8.3,8.3s8.3-3.7,8.3-8.3    C2287.1,2178.9,2283.4,2175.2,2278.8,2175.2z M2076.4,1981.1c-4.6,0-8.3,3.7-8.3,8.3s3.7,8.3,8.3,8.3s8.3-3.7,8.3-8.3    S2081,1981.1,2076.4,1981.1z M2177.6,2272.2c-4.6,0-8.3,3.7-8.3,8.3c0,4.6,3.7,8.3,8.3,8.3s8.3-3.7,8.3-8.3    C2185.9,2275.9,2182.2,2272.2,2177.6,2272.2z M2076.4,2272.2c-4.6,0-8.3,3.7-8.3,8.3c0,4.6,3.7,8.3,8.3,8.3s8.3-3.7,8.3-8.3    C2084.7,2275.9,2081,2272.2,2076.4,2272.2z M2076.4,2078.1c-4.6,0-8.3,3.7-8.3,8.3c0,4.6,3.7,8.3,8.3,8.3s8.3-3.7,8.3-8.3    C2084.7,2081.8,2081,2078.1,2076.4,2078.1z M1975.2,2272.2c-4.6,0-8.3,3.7-8.3,8.3c0,4.6,3.7,8.3,8.3,8.3s8.3-3.7,8.3-8.3    C1983.5,2275.9,1979.8,2272.2,1975.2,2272.2z M2076.4,2175.2c-4.6,0-8.3,3.7-8.3,8.3c0,4.6,3.7,8.3,8.3,8.3s8.3-3.7,8.3-8.3    C2084.7,2178.9,2081,2175.2,2076.4,2175.2z"/>
	</g>
	<g>
		<g>
			<g>
				<rect x="803.4" y="878.7" class="st26" width="66.8" height="986.5"/>
				<rect x="347.9" y="968.9" class="st26" width="979.8" height="38.7"/>
				<rect x="347.9" y="1576.7" class="st26" width="979.8" height="38.7"/>
				<rect x="407" y="988.2" width="861.5" height="607.8"/>
			</g>
			<g>
				<path class="st27" d="M1458,1713.5h-307.1c-15.7,0-28.5,12.8-28.5,28.5v102.6H559l-424.5-113.7c-14.6-3.9-29.7,4.8-33.6,19.4      s4.8,29.7,19.4,33.6l226.5,60.7H346c-0.7,9.5-1.1,19.1-1.1,28.7c0,235.7,215.9,426.7,482.3,426.7      c266.4,0,482.3-191.1,482.3-426.7c0-5.4-0.2-10.9-0.4-16.3h149c15.7,0,28.5-12.8,28.5-28.5v-86.6      C1486.5,1726.3,1473.7,1713.5,1458,1713.5z"/>
				<g>
					<path class="st26" d="M1098.7,2226h-543c16.3,9.8,33.3,18.8,50.9,26.9h441.1C1065.4,2244.8,1082.4,2235.8,1098.7,2226z"/>
					<path class="st26" d="M437.1,2124.3c7.6,9.2,15.6,18.2,24,26.9h732c8.4-8.7,16.4-17.6,24-26.9H437.1z"/>
					<path class="st26" d="M375.2,2022.6c3.8,9.1,8,18.1,12.5,26.9h878.8c4.5-8.8,8.7-17.8,12.5-26.9H375.2z"/>
					<path class="st26" d="M347.9,1920.9c1.1,9,2.6,18,4.3,26.9h949.9c1.8-8.9,3.2-17.8,4.3-26.9H347.9z"/>
				</g>
				<circle class="st23" cx="601" cy="1989.3" r="93.1"/>
				<path class="st28" d="M659.3,1989.3c0,32.2-26.1,58.3-58.3,58.3c-32.2,0-58.3-26.1-58.3-58.3c0-32.2,26.1-58.3,58.3-58.3      C633.2,1931,659.3,1957.1,659.3,1989.3z"/>
				<circle class="st23" cx="928.5" cy="1989.3" r="93.1"/>
				<path class="st28" d="M986.8,1989.3c0,32.2-26.1,58.3-58.3,58.3c-32.2,0-58.3-26.1-58.3-58.3c0-32.2,26.1-58.3,58.3-58.3      C960.7,1931,986.8,1957.1,986.8,1989.3z"/>
			</g>
		</g>
		<g>
			<path class="st29" d="M1053.9,1449.6c-16.2-5.9-34,2.4-39.9,18.6c-0.6,1.7-1.1,3.4-1.4,5.2l-119.8-43.6l119.8-43.6     c0.3,1.7,0.7,3.4,1.4,5.1c5.9,16.2,23.7,24.5,39.9,18.6c16.1-5.9,24.5-23.7,18.6-39.9c-3.3-9.2-10.5-15.8-19.1-18.8     c4.7-7.8,5.9-17.5,2.6-26.7c-5.9-16.1-23.7-24.5-39.9-18.6c-16.1,5.9-24.5,23.7-18.6,39.9c0.6,1.7,1.4,3.3,2.3,4.8l-162,59     l-162-59c0.9-1.5,1.6-3.1,2.3-4.8c5.9-16.1-2.4-34-18.6-39.9c-16.1-5.9-34,2.5-39.9,18.6c-3.3,9.2-2.1,18.9,2.6,26.6     c-8.6,3-15.8,9.6-19.1,18.8c-5.9,16.1,2.4,34,18.6,39.9c16.1,5.9,34-2.4,39.9-18.6c0.6-1.7,1-3.4,1.4-5.2l119.8,43.6l-119.8,43.6     c-0.3-1.7-0.7-3.4-1.4-5.2c-5.9-16.1-23.7-24.5-39.9-18.6c-16.1,5.9-24.5,23.7-18.6,39.9c3.3,9.2,10.5,15.8,19.1,18.8     c-4.7,7.8-5.9,17.5-2.6,26.6c5.9,16.1,23.7,24.5,39.9,18.6c16.1-5.9,24.5-23.7,18.6-39.9c-0.6-1.7-1.4-3.3-2.3-4.8l162-59l162,59     c-0.9,1.5-1.6,3.1-2.3,4.8c-5.9,16.1,2.5,34,18.6,39.9c16.2,5.9,34-2.4,39.9-18.6c3.3-9.2,2.1-18.9-2.6-26.7     c8.6-3,15.8-9.6,19.1-18.8C1078.4,1473.3,1070,1455.4,1053.9,1449.6z M695.8,1284.1c0,28.5,23.1,51.6,51.6,51.6     c0.9,0,1.8-0.1,2.7-0.1c-0.4,1.7-0.6,3.4-0.6,5.2c0,13.7,11.1,24.7,24.7,24.7c8.1,0,15.3-4,19.8-10.1     c3.9,8.6,12.5,14.7,22.6,14.7c9.1,0,16.9-4.9,21.2-12.2c4.3,7.3,12.1,12.2,21.2,12.2c10.1,0,18.7-6.1,22.6-14.7     c4.5,6.1,11.7,10.1,19.8,10.1c13.7,0,24.7-11.1,24.7-24.7c0-1.8-0.2-3.5-0.6-5.2c0.9,0,1.8,0.1,2.6,0.1     c28.5,0,51.6-23.1,51.6-51.6c0-8.5-2.1-16.5-5.7-23.5c12.5-22.4,19.7-48.3,19.7-75.8c0-86.1-69.8-155.9-155.9-155.9     c-86.1,0-155.9,69.8-155.9,155.9c0,27.5,7.1,53.3,19.7,75.8C697.9,1267.7,695.8,1275.7,695.8,1284.1z M917.5,1174.8     c21.7,0,39.3,17.6,39.3,39.3c0,21.7-17.6,39.3-39.3,39.3c-21.7,0-39.3-17.6-39.3-39.3C878.2,1192.4,895.8,1174.8,917.5,1174.8z      M837.8,1256.9c0,0,27.9,11.2,27.9,36.2c0,20-22.2,17.1-27.9-1c-5.7,18.1-27.9,21-27.9,1C809.8,1268.1,837.8,1256.9,837.8,1256.9     z M758,1174.8c21.7,0,39.3,17.6,39.3,39.3c0,21.7-17.6,39.3-39.3,39.3c-21.7,0-39.3-17.6-39.3-39.3     C718.7,1192.4,736.3,1174.8,758,1174.8z"/>
			<path d="M992.1,1207l-17.1-3.6c-2.4-21.7-22.8-32.5-48.6-37c-24.2-4.3-45.8-1.7-56.4,14.7l-182.4-38.8c-1,3.6-1.9,7.3-2.7,11.1     l180.4,38.3c-0.5,1.6-0.8,3.3-1.2,5.1c-5.4,30.4,15,59.5,45.4,64.8c30.4,5.4,59.5-15,64.8-45.4c0.1-0.4,0.1-0.9,0.2-1.3l15.4,3.3     C990.9,1214.6,991.5,1210.8,992.1,1207z"/>
			<g>
				<path class="st9" d="M992.7,1167.7c-8.6-78-74.7-138.7-155-138.7c-78.3,0-143.1,57.7-154.2,132.8      C740.4,1141.1,871.6,1122.7,992.7,1167.7z"/>
				<path class="st9" d="M686.7,1117.9c11.4,19.7,0.3,38.4,0.3,38.4c0,0-21.7,0.3-33.1-19.4c-11.4-19.7-0.3-38.4-0.3-38.4      C653.6,1098.5,675.3,1098.2,686.7,1117.9z"/>
				<path class="st9" d="M671.8,1180.5c-19.7,11.4-37.8,1.3-37.8,1.3c0,0,0.3-20.7,20-32c19.7-11.4,37.8-1.3,37.8-1.3      C691.8,1148.4,691.5,1169.1,671.8,1180.5z"/>
			</g>
		</g>
	</g>
	<g>
		<g>
			<g>
				<g>
					<path class="st30" d="M1262.2,602.7c-107.4,0-228.9,83.5-228.9,228.9c0,2.5,0.1,5,0.1,7.5c69.4,32.7,147,51,228.8,51       s159.4-18.3,228.8-51c0.1-2.5,0.1-5,0.1-7.5C1491.1,686.2,1369.6,602.7,1262.2,602.7z"/>
					<path class="st31" d="M1212,659c0,27.7,22.4,50.1,50.1,50.1s50.1-22.4,50.1-50.1H1212z"/>
					<g>
						<g>
							<path class="st32" d="M1107,866.7c4.8-34.9,34-116.7,34-116.7s-44.3,72.4-52.6,110.7C1094.6,862.8,1100.8,864.8,1107,866.7z          M1383.2,750.1c0,0,29.3,81.8,34,116.7c6.2-1.9,12.4-3.9,18.6-6C1427.5,822.5,1383.2,750.1,1383.2,750.1z"/>
						</g>
					</g>
				</g>
			</g>
			<g>
				<path class="st33" d="M1403.2,254.1c24.3-48.1-12.1-79.5-12.1-79.5c0,0-24.5,12.5-32,40.8c-1.6,5.9-1.5,11.4-0.5,16.3      c-29.6-22.8-58.2-33.9-112.9-33.9c-132.1,0-217.9,110.7-217.9,242.8c0,132.1,107.1,225,239.2,225c132.1,0,239.2-92.9,239.2-225      C1506.2,359.9,1475.8,285.4,1403.2,254.1z"/>
				<g>
					<g>
						<g>
							<path class="st31" d="M1077,456.4c-15.5,1.7-27.2,9.2-27.2,25.8c0,16.9,12.8,37.6,28.8,42.2c-2.3-11.8-4.2-24.1-4.2-36.6         C1074.4,477.1,1075.3,466.6,1077,456.4z M1457,456.4c1.7,10.2,2.6,20.7,2.6,31.4c0,12.5-1.9,24.7-4.2,36.6         c16-4.6,28.8-25.3,28.8-42.2C1484.2,465.5,1472.6,458.1,1457,456.4z"/>
						</g>
					</g>
					<g>
						<g>
							<path class="st34" d="M1457.1,456.3c-94.3-10.5-140.1-87.9-140.1-87.9c-52,70.9-202.3,61.2-242.2,105.9c0,0,0,0,0-0.1         c-0.3,4.3-0.4,8.6-0.4,13c0,106.4,86.2,192.6,192.6,192.6c106.4,0,192.6-86.2,192.6-192.6         C1459.6,476.7,1458.7,466.4,1457.1,456.3z"/>
						</g>
					</g>
				</g>
				<path class="st35" d="M1267,437.4"/>
				<path class="st17" d="M1325.3,592.6c0,32.9-26.7,59.6-59.6,59.6c-32.9,0-59.6-26.7-59.6-59.6      C1206.1,580.8,1325.3,580.8,1325.3,592.6z"/>
				<g>
					<path class="st2" d="M1204.1,499.7c0,24-19.5,43.5-43.5,43.5c-24,0-43.5-19.5-43.5-43.5c0-24,19.5-43.5,43.5-43.5       C1184.7,456.2,1204.1,475.7,1204.1,499.7z"/>
					<circle cx="1160.6" cy="499.7" r="27.8"/>
					<circle class="st2" cx="1178.9" cy="481.4" r="14.3"/>
				</g>
				<g>
					<path class="st2" d="M1416.9,499.7c0,24-19.5,43.5-43.5,43.5c-24,0-43.5-19.5-43.5-43.5c0-24,19.5-43.5,43.5-43.5       C1397.5,456.2,1416.9,475.7,1416.9,499.7z"/>
					<circle cx="1373.4" cy="499.7" r="27.8"/>
					<circle class="st2" cx="1391.7" cy="481.4" r="14.3"/>
				</g>
				<path class="st36" d="M1224.7,556.2c11.4-29.2,70.6-25.8,86-12.9C1280.7,538.3,1236.9,546.4,1224.7,556.2z"/>
			</g>
		</g>
		<g>
			<g>
				<path d="M1429.6,507c-8.3,30.9-40.8,52.1-71.8,43.8c-30.9-8.3-48.5-42.9-40.2-73.9s36.3-35.2,67.2-26.9      C1415.7,458.3,1437.8,476,1429.6,507z"/>
				<path d="M1209.5,426.6l244.1,108.7c0.9-3.7,1.8-7.4,2.5-11.1l-229.8-102.3C1220.7,423.6,1215.1,425.1,1209.5,426.6z"/>
				<g>
					<g>
						<path class="st37" d="M1359.4,453.5c-19,0-30.5,8.3-35,25.3c-7.4,27.7,9,58.1,35.2,65.1c3.9,1,7.9,1.6,11.9,1.6        c23,0,45-17.3,51.1-40.4c3.3-12.2,1.3-22.1-6.1-30.3c-6.8-7.6-18.5-13.8-33.6-17.8C1374.3,454.6,1366.4,453.5,1359.4,453.5z"/>
					</g>
				</g>
			</g>
			<g>
				<path d="M1267,347.5c-100.3,0-235.8,46.8-235.8,46.8l-70.8-148.8c103.3,0,187.8-145.5,306.6-145.5      c118.7,0,203.2,145.5,306.6,145.5l-70.8,148.8C1502.8,394.3,1367.3,347.5,1267,347.5z"/>
				<g>
					<g>
						<path class="st28" d="M1267,121.4c-114.9,0-197.7,136.2-296.6,145l52,109.5c39.2-12.7,161.3-49.8,244.6-49.8        c83.2,0,205.3,37.1,244.6,49.8l52-109.5C1464.7,257.6,1381.9,121.4,1267,121.4z"/>
					</g>
				</g>
				<path class="st2" d="M1334,271.8c-5-1.8-10.4,0.8-12.2,5.7c-0.2,0.5-0.3,1.1-0.4,1.6l-36.7-13.4l36.7-13.4      c0.1,0.5,0.2,1.1,0.4,1.6c1.8,5,7.3,7.5,12.2,5.7c5-1.8,7.5-7.3,5.7-12.2c-1-2.8-3.2-4.8-5.9-5.8c1.4-2.4,1.8-5.4,0.8-8.2      c-1.8-5-7.3-7.5-12.2-5.7c-5,1.8-7.5,7.3-5.7,12.2c0.2,0.5,0.4,1,0.7,1.5l-49.7,18.1l-49.7-18.1c0.3-0.5,0.5-1,0.7-1.5      c1.8-5-0.7-10.4-5.7-12.2c-5-1.8-10.4,0.8-12.2,5.7c-1,2.8-0.6,5.8,0.8,8.2c-2.6,0.9-4.8,2.9-5.9,5.8c-1.8,5,0.8,10.4,5.7,12.2      c5,1.8,10.4-0.8,12.2-5.7c0.2-0.5,0.3-1.1,0.4-1.6l36.7,13.4l-36.7,13.4c-0.1-0.5-0.2-1.1-0.4-1.6c-1.8-5-7.3-7.5-12.2-5.7      c-5,1.8-7.5,7.3-5.7,12.2c1,2.8,3.2,4.8,5.9,5.8c-1.4,2.4-1.8,5.4-0.8,8.2c1.8,5,7.3,7.5,12.2,5.7c5-1.8,7.5-7.3,5.7-12.2      c-0.2-0.5-0.4-1-0.7-1.5l49.7-18.1l49.7,18.1c-0.3,0.5-0.5,1-0.7,1.5c-1.8,5,0.8,10.4,5.7,12.2c5,1.8,10.4-0.8,12.2-5.7      c1-2.8,0.6-5.8-0.8-8.2c2.6-0.9,4.8-2.9,5.9-5.8C1341.5,279.1,1338.9,273.6,1334,271.8z M1224.2,221.1c0,8.7,7.1,15.8,15.8,15.8      c0.3,0,0.5,0,0.8,0c-0.1,0.5-0.2,1.1-0.2,1.6c0,4.2,3.4,7.6,7.6,7.6c2.5,0,4.7-1.2,6.1-3.1c1.2,2.7,3.8,4.5,6.9,4.5      c2.8,0,5.2-1.5,6.5-3.7c1.3,2.2,3.7,3.7,6.5,3.7c3.1,0,5.7-1.9,6.9-4.5c1.4,1.9,3.6,3.1,6.1,3.1c4.2,0,7.6-3.4,7.6-7.6      c0-0.6-0.1-1.1-0.2-1.6c0.3,0,0.5,0,0.8,0c8.7,0,15.8-7.1,15.8-15.8c0-2.6-0.6-5-1.8-7.2c3.8-6.9,6-14.8,6-23.2      c0-26.4-21.4-47.8-47.8-47.8s-47.8,21.4-47.8,47.8c0,8.4,2.2,16.4,6,23.2C1224.8,216.1,1224.2,218.5,1224.2,221.1z       M1292.1,187.6c6.7,0,12,5.4,12,12c0,6.7-5.4,12-12,12c-6.7,0-12-5.4-12-12C1280.1,193,1285.5,187.6,1292.1,187.6z       M1267.7,212.8c0,0,8.6,3.4,8.6,11.1c0,6.1-6.8,5.2-8.6-0.3c-1.7,5.5-8.6,6.4-8.6,0.3C1259.1,216.2,1267.7,212.8,1267.7,212.8z       M1243.2,187.6c6.7,0,12,5.4,12,12c0,6.7-5.4,12-12,12c-6.7,0-12-5.4-12-12C1231.2,193,1236.6,187.6,1243.2,187.6z"/>
			</g>
		</g>
	</g>
</g>
</svg>
